<?xml version="1.0" standalone="no"?><!-- Generator: Gravit.io --><svg xmlns="http://www.w3.org/2000/svg" xmlns:xlink="http://www.w3.org/1999/xlink" style="isolation:isolate" viewBox="0 0 1280 720" width="1280" height="720"><defs><clipPath id="_clipPath_uy0MRdPhVi525eErnkjdzDxCGnUbt5sX"><rect width="1280" height="720"/></clipPath></defs><g clip-path="url(#_clipPath_uy0MRdPhVi525eErnkjdzDxCGnUbt5sX)"><path d=" M 288.084 464.045 L 303.926 459.724 C 312.207 441.003 314.727 418.32 320.847 395.278 C 325.528 373.676 330.928 352.794 334.529 329.752 C 338.849 310.67 341.369 285.828 347.49 265.306 L 367.292 266.746 C 375.573 266.746 385.294 268.906 393.934 268.546 C 402.575 269.986 412.296 269.986 420.577 271.426 L 436.419 271.426 L 442.179 265.306 L 441.819 249.824 C 433.538 245.144 420.577 240.103 409.776 238.663 C 398.975 237.583 389.254 236.503 378.453 235.063 C 367.652 233.983 357.931 233.983 347.13 232.903 C 333.809 232.903 319.407 232.903 306.086 232.903 C 293.125 233.983 279.804 233.983 266.482 235.063 C 253.161 236.503 238.76 237.583 225.438 238.663 C 225.438 238.663 214.997 237.943 207.437 232.903 L 214.637 184.658 C 216.077 177.457 213.557 171.337 209.957 166.656 L 199.156 160.536 C 193.035 159.456 186.195 159.816 182.594 163.416 C 177.914 177.817 177.554 196.539 175.033 212.381 C 171.433 229.302 168.913 245.864 167.833 262.786 C 165.313 280.787 164.232 297.709 164.232 315.711 C 165.313 324.351 166.393 331.552 170.353 338.753 L 182.234 345.954 L 189.435 345.954 L 199.156 337.673 L 199.516 319.311 L 201.316 271.426 C 209.957 269.986 219.678 269.986 229.039 269.986 C 237.679 269.986 247.4 269.986 255.681 268.906 C 263.962 268.906 272.603 267.826 280.884 266.386 C 280.884 266.386 294.205 267.106 306.086 268.906 C 305.006 289.428 302.126 310.31 298.525 328.312 C 294.925 346.314 291.685 366.476 288.084 384.477 C 283.404 402.479 278.723 421.921 272.603 439.923 C 271.163 446.043 272.603 451.804 276.203 456.844 L 288.084 464.045 Z  M 549.109 319.671 L 691.323 319.671 C 702.124 318.591 712.925 318.591 725.166 318.591 C 735.967 318.591 746.768 318.591 757.569 317.511 C 768.37 317.511 779.171 316.071 793.213 314.991 L 798.973 305.99 L 798.973 295.909 L 787.452 285.828 L 693.843 288.348 L 546.229 289.428 L 532.548 286.908 C 524.627 286.908 517.426 289.428 512.386 295.549 C 511.306 302.029 512.386 307.79 517.426 313.55 C 527.507 317.511 538.308 319.671 549.109 319.671 Z  M 1031.556 440.283 L 1040.557 438.842 L 1050.277 431.642 L 1043.797 341.633 L 1047.037 330.472 C 1061.439 326.152 1072.6 323.271 1085.561 321.831 C 1098.162 320.391 1110.763 317.511 1123.004 316.071 C 1135.246 314.631 1147.127 311.03 1155.768 303.83 L 1154.687 290.508 L 1143.526 287.268 C 1134.886 287.268 1124.805 287.268 1115.444 288.348 C 1105.363 289.788 1097.082 291.228 1087.361 292.668 C 1077.64 293.749 1069.359 295.549 1059.278 296.629 L 1041.637 295.549 L 1040.196 281.147 C 1039.476 269.626 1039.476 258.105 1040.196 248.384 C 1050.998 240.823 1063.599 239.383 1076.2 239.383 C 1089.881 239.023 1102.482 234.703 1105.363 226.782 L 1103.203 211.301 L 1088.081 205.9 L 1061.799 206.62 L 1040.196 207.34 L 1034.436 186.818 C 1032.276 179.978 1028.675 176.377 1022.915 173.857 L 1008.873 173.857 L 999.513 183.578 L 999.153 195.819 L 1000.593 211.301 C 992.312 217.781 982.591 219.941 971.07 221.382 C 958.829 222.822 947.308 225.342 936.507 227.142 C 923.905 228.222 912.384 229.302 900.863 231.103 L 891.142 239.383 L 893.662 251.624 C 898.343 257.745 904.103 260.265 910.944 260.265 C 920.665 261.705 928.586 260.265 938.307 259.185 C 946.588 257.385 955.588 256.305 964.949 254.505 C 973.23 253.065 981.871 253.065 990.152 251.624 L 1000.593 253.425 L 1002.753 263.506 C 1002.753 272.506 1004.553 282.947 1004.553 282.947 C 1004.553 290.868 1004.193 298.429 999.153 305.27 C 982.591 306.71 968.55 309.59 953.068 312.11 C 937.947 314.631 922.105 316.431 906.624 317.511 C 891.502 318.951 876.741 320.391 868.82 330.112 L 870.98 345.233 L 885.742 349.914 C 897.983 349.914 913.104 348.474 924.265 347.034 C 935.786 345.594 946.588 344.513 958.109 342.353 C 967.83 341.273 978.991 338.393 990.152 336.953 L 1003.473 338.753 C 1007.073 348.834 1008.153 360.355 1009.594 370.436 C 1009.594 370.436 1011.394 385.557 1012.834 396.358 C 1012.834 405.359 1015.714 414.72 1016.794 424.081 C 1019.314 432.002 1023.995 436.682 1031.556 440.283 Z " fill-rule="evenodd" fill="rgb(0,0,0)"/><path d=" M 770 250 C 778.334 239.408 769.971 228.71 767.814 227.966 C 763.442 226.458 720.83 211.652 717.814 217.966 Q 714.798 224.28 697.814 227.966 Q 669.802 233.105 657.814 227.966 C 645.825 222.828 623.199 220.036 617.814 227.966 Q 612.428 235.897 557.814 227.966 Q 560.884 225.844 547.814 227.966 Q 534.744 230.089 537.814 247.966 Q 548.939 256.803 557.814 257.966 C 566.689 259.13 588.282 255.68 597.814 247.966 C 607.346 240.253 613.432 253.899 627.814 257.966 Q 642.195 262.034 687.814 257.966 Q 700.83 248.42 707.814 247.966 Q 714.798 247.513 747.814 257.966 Q 765.605 255.585 770 250 Z " fill="rgb(0,0,0)" vector-effect="non-scaling-stroke" stroke-width="1" stroke="rgb(0,0,0)" stroke-linejoin="miter" stroke-linecap="square" stroke-miterlimit="3"/><path d=" M 719.093 207.294 C 692.447 198.075 661.314 201.994 659.093 207.294 Q 656.871 212.595 619.093 197.294 L 579.093 207.294 Q 545.93 175.391 569.093 177.294 Q 592.255 179.198 629.093 187.294 Q 660.259 173.939 669.093 177.294 Q 677.926 180.65 719.093 177.294 Q 744.355 174.336 739.093 187.294 C 733.83 200.253 745.739 216.514 719.093 207.294 Z " fill="rgb(0,0,0)" vector-effect="non-scaling-stroke" stroke-width="1" stroke="rgb(0,0,0)" stroke-linejoin="miter" stroke-linecap="square" stroke-miterlimit="3"/><path d=" M 660 160 Q 666.491 165.534 670 120 L 650 120 Q 644.002 118.096 640 140 Q 635.998 161.904 640 160 Q 653.509 154.466 660 160 Z " fill="rgb(0,0,0)" vector-effect="non-scaling-stroke" stroke-width="1" stroke="rgb(0,0,0)" stroke-linejoin="miter" stroke-linecap="square" stroke-miterlimit="3"/><path d=" M 689.609 596.76 L 704.477 596.76 L 704.477 593.916 L 692.957 593.916 L 692.957 570.372 L 689.609 570.372 L 689.609 596.76 Z  M 708.833 596.76 L 712.109 596.76 L 712.109 577.212 L 708.833 577.212 L 708.833 596.76 Z  M 710.489 573.18 C 711.785 573.18 712.757 572.28 712.757 571.056 C 712.757 569.724 711.785 568.932 710.489 568.932 C 709.193 568.932 708.221 569.724 708.221 571.056 C 708.221 572.28 709.193 573.18 710.489 573.18 Z  M 727.337 597.228 C 731.837 597.228 735.833 593.376 735.833 586.644 C 735.833 580.668 733.097 576.708 728.021 576.708 C 725.861 576.708 723.665 577.932 721.901 579.48 L 722.009 575.952 L 722.009 568.104 L 718.733 568.104 L 718.733 596.76 L 721.361 596.76 L 721.649 594.744 L 721.757 594.744 C 723.485 596.328 725.537 597.228 727.337 597.228 Z  M 726.797 594.492 C 725.501 594.492 723.737 593.952 722.009 592.44 L 722.009 582.18 C 723.881 580.416 725.609 579.48 727.265 579.48 C 730.973 579.48 732.413 582.396 732.413 586.716 C 732.413 591.576 730.037 594.492 726.797 594.492 Z  M 740.981 596.76 L 744.257 596.76 L 744.257 584.196 C 745.553 580.848 747.569 579.696 749.189 579.696 C 749.981 579.696 750.449 579.768 751.097 580.02 L 751.709 577.14 C 751.097 576.816 750.485 576.708 749.621 576.708 C 747.425 576.708 745.445 578.292 744.077 580.776 L 743.969 580.776 L 743.681 577.212 L 740.981 577.212 L 740.981 596.76 Z  M 759.449 597.228 C 761.861 597.228 764.057 595.968 765.929 594.42 L 766.037 594.42 L 766.325 596.76 L 769.025 596.76 L 769.025 584.736 C 769.025 579.912 767.009 576.708 762.257 576.708 C 759.125 576.708 756.353 578.112 754.553 579.264 L 755.849 581.532 C 757.397 580.488 759.449 579.444 761.717 579.444 C 764.921 579.444 765.749 581.856 765.749 584.376 C 757.433 585.312 753.725 587.436 753.725 591.684 C 753.725 595.212 756.173 597.228 759.449 597.228 Z  M 760.385 594.6 C 758.441 594.6 756.929 593.7 756.929 591.468 C 756.929 588.948 759.161 587.328 765.749 586.536 L 765.749 592.008 C 763.841 593.7 762.293 594.6 760.385 594.6 Z  M 775.253 596.76 L 778.529 596.76 L 778.529 584.196 C 779.825 580.848 781.841 579.696 783.461 579.696 C 784.253 579.696 784.721 579.768 785.369 580.02 L 785.981 577.14 C 785.369 576.816 784.757 576.708 783.893 576.708 C 781.697 576.708 779.717 578.292 778.349 580.776 L 778.241 580.776 L 777.953 577.212 L 775.253 577.212 L 775.253 596.76 Z  M 789.545 605.184 C 793.433 605.184 795.449 602.232 796.817 598.38 L 804.197 577.212 L 800.993 577.212 L 797.501 588.084 C 796.961 589.812 796.385 591.792 795.845 593.556 L 795.665 593.556 C 795.053 591.792 794.369 589.776 793.793 588.084 L 789.797 577.212 L 786.377 577.212 L 794.225 596.796 L 793.793 598.272 C 793.001 600.684 791.597 602.484 789.365 602.484 C 788.861 602.484 788.285 602.304 787.889 602.16 L 787.241 604.788 C 787.853 605.04 788.609 605.184 789.545 605.184 Z  M 809.669 597.228 C 810.965 597.228 812.045 596.22 812.045 594.744 C 812.045 593.268 810.965 592.188 809.669 592.188 C 808.373 592.188 807.293 593.268 807.293 594.744 C 807.293 596.22 808.373 597.228 809.669 597.228 Z  M 529.733 597.228 C 533.153 597.228 535.745 595.86 537.833 593.448 L 535.997 591.36 C 534.305 593.196 532.397 594.312 529.877 594.312 C 524.837 594.312 521.669 590.136 521.669 583.476 C 521.669 576.888 524.981 572.784 529.985 572.784 C 532.253 572.784 534.017 573.828 535.385 575.304 L 537.185 573.144 C 535.673 571.452 533.153 569.868 529.949 569.868 C 523.253 569.868 518.249 575.052 518.249 583.584 C 518.249 592.152 523.181 597.228 529.733 597.228 Z  M 546.941 597.228 C 549.353 597.228 551.549 595.968 553.421 594.42 L 553.529 594.42 L 553.817 596.76 L 556.517 596.76 L 556.517 584.736 C 556.517 579.912 554.501 576.708 549.749 576.708 C 546.617 576.708 543.845 578.112 542.045 579.264 L 543.341 581.532 C 544.889 580.488 546.941 579.444 549.209 579.444 C 552.413 579.444 553.241 581.856 553.241 584.376 C 544.925 585.312 541.217 587.436 541.217 591.684 C 541.217 595.212 543.665 597.228 546.941 597.228 Z  M 547.877 594.6 C 545.933 594.6 544.421 593.7 544.421 591.468 C 544.421 588.948 546.653 587.328 553.241 586.536 L 553.241 592.008 C 551.333 593.7 549.785 594.6 547.877 594.6 Z  M 562.745 596.76 L 565.985 596.76 L 565.985 591.612 L 569.657 587.328 L 575.381 596.76 L 578.945 596.76 L 571.529 585.06 L 578.081 577.212 L 574.445 577.212 L 566.057 587.544 L 565.985 587.544 L 565.985 568.104 L 562.745 568.104 L 562.745 596.76 Z  M 590.501 597.228 C 593.165 597.228 595.253 596.328 596.981 595.212 L 595.793 593.052 C 594.353 594.024 592.805 594.6 590.897 594.6 C 587.189 594.6 584.633 591.936 584.417 587.76 L 597.593 587.76 C 597.665 587.292 597.737 586.608 597.737 585.888 C 597.737 580.308 594.929 576.708 589.961 576.708 C 585.425 576.708 581.141 580.668 581.141 587.004 C 581.141 593.448 585.317 597.228 590.501 597.228 Z  M 584.381 585.42 C 584.777 581.568 587.225 579.336 589.997 579.336 C 593.057 579.336 594.857 581.46 594.857 585.42 L 584.381 585.42 Z  M 612.821 597.228 C 616.241 597.228 618.833 595.86 620.921 593.448 L 619.085 591.36 C 617.393 593.196 615.485 594.312 612.965 594.312 C 607.925 594.312 604.757 590.136 604.757 583.476 C 604.757 576.888 608.069 572.784 613.073 572.784 C 615.341 572.784 617.105 573.828 618.473 575.304 L 620.273 573.144 C 618.761 571.452 616.241 569.868 613.037 569.868 C 606.341 569.868 601.337 575.052 601.337 583.584 C 601.337 592.152 606.269 597.228 612.821 597.228 Z  M 625.529 596.76 L 628.805 596.76 L 628.805 582.576 C 630.785 580.596 632.153 579.588 634.169 579.588 C 636.761 579.588 637.877 581.136 637.877 584.808 L 637.877 596.76 L 641.153 596.76 L 641.153 584.376 C 641.153 579.372 639.281 576.708 635.177 576.708 C 632.513 576.708 630.497 578.184 628.697 579.984 L 628.805 575.952 L 628.805 568.104 L 625.529 568.104 L 625.529 596.76 Z  M 651.881 597.228 C 654.293 597.228 656.489 595.968 658.361 594.42 L 658.469 594.42 L 658.757 596.76 L 661.457 596.76 L 661.457 584.736 C 661.457 579.912 659.441 576.708 654.689 576.708 C 651.557 576.708 648.785 578.112 646.985 579.264 L 648.281 581.532 C 649.829 580.488 651.881 579.444 654.149 579.444 C 657.353 579.444 658.181 581.856 658.181 584.376 C 649.865 585.312 646.157 587.436 646.157 591.684 C 646.157 595.212 648.605 597.228 651.881 597.228 Z  M 652.817 594.6 C 650.873 594.6 649.361 593.7 649.361 591.468 C 649.361 588.948 651.593 587.328 658.181 586.536 L 658.181 592.008 C 656.273 593.7 654.725 594.6 652.817 594.6 Z  M 673.841 597.228 C 675.029 597.228 676.325 596.868 677.441 596.508 L 676.793 594.06 C 676.145 594.312 675.245 594.564 674.561 594.564 C 672.293 594.564 671.537 593.196 671.537 590.784 L 671.537 579.876 L 676.829 579.876 L 676.829 577.212 L 671.537 577.212 L 671.537 571.74 L 668.801 571.74 L 668.405 577.212 L 665.345 577.392 L 665.345 579.876 L 668.261 579.876 L 668.261 590.712 C 668.261 594.636 669.665 597.228 673.841 597.228 Z  M 493.121 586.032 L 494.417 582 C 495.353 579.012 496.217 576.168 497.045 573.072 L 497.189 573.072 C 498.053 576.132 498.881 579.012 499.853 582 L 501.113 586.032 L 493.121 586.032 Z  M 504.461 596.76 L 507.989 596.76 L 499.025 570.372 L 495.317 570.372 L 486.353 596.76 L 489.737 596.76 L 492.293 588.696 L 501.941 588.696 L 504.461 596.76 Z " fill-rule="evenodd" fill="rgb(0,0,0)"/><path d=" M 668.57 113.639 L 670 99.569 Q 661.122 100.604 663.68 91.819 Q 666.238 83.035 658.79 70 Q 649.552 80.254 649.61 90.39 Q 649.669 100.526 654.501 112.209 L 668.57 113.639 Z " fill="rgb(255,64,0)"/><path d=" M 665.679 112.125 L 666.752 101.573 Q 660.093 102.349 662.012 95.761 Q 663.93 89.172 658.344 79.396 Q 651.416 87.087 651.459 94.688 Q 651.503 102.29 655.127 111.053 L 665.679 112.125 Z " fill="rgb(255,173,20)"/></g></svg>